# xmcd
#
# Track frame offsets: 
#        150
#        20630
#        38451
#        58479
#        76201
#        101815
#        121883
#        145041
#        168955
#        189087
#        211136
#        228046
#        251663
#        273915
#
# Disc length: 3894 seconds
#
# Revision: 0
# Processed by: cddbd v1.5.2PL0 Copyright (c) Steve Scherf et al.
# Submitted via: ExactAudioCopyFreeDBPlugin 1.0
#
DISCID=b10f340e
DTITLE=Söhne Mannheims - Best Of Söhne Mannheims
DYEAR=2015
DGENRE=
TTITLE0=Geh davon aus
TTITLE1=Dein Glück liegt mir am Herzen
TTITLE2=Volle Kraft voraus
TTITLE3=Vielleicht
TTITLE4=Dein Leben
TTITLE5=Und wenn ein Lied
TTITLE6=Zurück zu dir
TTITLE7=Das hat die Welt noch nicht gesehen
TTITLE8=Ich wollt nur deine Stimme hörn
TTITLE9=Freiheit
TTITLE10=Für dich
TTITLE11=Deine Waffe ist die Liebe
TTITLE12=Was ist geblieben
TTITLE13=Rosenblätter
EXTD=
EXTT0=
EXTT1=
EXTT2=
EXTT3=
EXTT4=
EXTT5=
EXTT6=
EXTT7=
EXTT8=
EXTT9=
EXTT10=
EXTT11=
EXTT12=
EXTT13=
PLAYORDER=
